<?xml version="1.0" encoding="UTF-8" standalone="no"?>
<svg
   xmlns:dc="http://purl.org/dc/elements/1.1/"
   xmlns:cc="http://creativecommons.org/ns#"
   xmlns:rdf="http://www.w3.org/1999/02/22-rdf-syntax-ns#"
   xmlns:svg="http://www.w3.org/2000/svg"
   xmlns="http://www.w3.org/2000/svg"
   xmlns:xlink="http://www.w3.org/1999/xlink"
   xmlns:sodipodi="http://sodipodi.sourceforge.net/DTD/sodipodi-0.dtd"
   xmlns:inkscape="http://www.inkscape.org/namespaces/inkscape"
   sodipodi:docname="Garten.svg"
   inkscape:version="1.0 (4035a4fb49, 2020-05-01)"
   id="svg8"
   version="1.1"
   viewBox="0 0 191.75133 460.58063"
   height="460.58063mm"
   width="191.75133mm">
  <defs
     id="defs2">
    <marker
       inkscape:stockid="Arrow2Mend"
       orient="auto"
       refY="0"
       refX="0"
       id="marker2818"
       style="overflow:visible"
       inkscape:isstock="true">
      <path
         inkscape:connector-curvature="0"
         id="path2816"
         style="fill:#000000;fill-opacity:1;fill-rule:evenodd;stroke:#000000;stroke-width:0.625;stroke-linejoin:round;stroke-opacity:1"
         d="M 8.7185878,4.0337352 -2.2072895,0.01601326 8.7185884,-4.0017078 c -1.7454984,2.3720609 -1.7354408,5.6174519 -6e-7,8.035443 z"
         transform="scale(-0.6)" />
    </marker>
    <marker
       inkscape:stockid="Arrow2Mstart"
       orient="auto"
       refY="0"
       refX="0"
       id="marker2778"
       style="overflow:visible"
       inkscape:isstock="true">
      <path
         inkscape:connector-curvature="0"
         id="path2776"
         style="fill:#000000;fill-opacity:1;fill-rule:evenodd;stroke:#000000;stroke-width:0.625;stroke-linejoin:round;stroke-opacity:1"
         d="M 8.7185878,4.0337352 -2.2072895,0.01601326 8.7185884,-4.0017078 c -1.7454984,2.3720609 -1.7354408,5.6174519 -6e-7,8.035443 z"
         transform="scale(0.6)" />
    </marker>
    <marker
       inkscape:isstock="true"
       style="overflow:visible"
       id="Arrow2Lend"
       refX="0"
       refY="0"
       orient="auto"
       inkscape:stockid="Arrow2Lend">
      <path
         inkscape:connector-curvature="0"
         transform="matrix(-1.1,0,0,-1.1,-1.1,0)"
         d="M 8.7185878,4.0337352 -2.2072895,0.01601326 8.7185884,-4.0017078 c -1.7454984,2.3720609 -1.7354408,5.6174519 -6e-7,8.035443 z"
         style="fill:#000000;fill-opacity:1;fill-rule:evenodd;stroke:#000000;stroke-width:0.625;stroke-linejoin:round;stroke-opacity:1"
         id="path2313" />
    </marker>
    <marker
       inkscape:isstock="true"
       style="overflow:visible"
       id="Arrow2Lstart"
       refX="0"
       refY="0"
       orient="auto"
       inkscape:stockid="Arrow2Lstart">
      <path
         inkscape:connector-curvature="0"
         transform="matrix(1.1,0,0,1.1,1.1,0)"
         d="M 8.7185878,4.0337352 -2.2072895,0.01601326 8.7185884,-4.0017078 c -1.7454984,2.3720609 -1.7354408,5.6174519 -6e-7,8.035443 z"
         style="fill:#000000;fill-opacity:1;fill-rule:evenodd;stroke:#000000;stroke-width:0.625;stroke-linejoin:round;stroke-opacity:1"
         id="path2310" />
    </marker>
    <clipPath
       id="clipPath831"
       clipPathUnits="userSpaceOnUse">
      <path
         inkscape:connector-curvature="0"
         id="path829"
         d="m 5,71025 h 28430 v 45545 H 5 V 71025" />
    </clipPath>
    <clipPath
       id="clipPath1171"
       clipPathUnits="userSpaceOnUse">
      <path
         inkscape:connector-curvature="0"
         id="path1169"
         d="m 5,71025 h 28430 v 45545 H 5 V 71025" />
    </clipPath>
    <clipPath
       id="clipPath1179"
       clipPathUnits="userSpaceOnUse">
      <path
         inkscape:connector-curvature="0"
         id="path1177"
         d="m 5,71025 h 28430 v 45545 H 5 V 71025" />
    </clipPath>
    <clipPath
       id="clipPath37133"
       clipPathUnits="userSpaceOnUse">
      <path
         inkscape:connector-curvature="0"
         id="path37131"
         d="m 5,71025 h 28430 v 45545 H 5 V 71025" />
    </clipPath>
    <clipPath
       id="clipPath37141"
       clipPathUnits="userSpaceOnUse">
      <path
         inkscape:connector-curvature="0"
         id="path37139"
         d="m 5,71025 h 28430 v 45545 H 5 V 71025" />
    </clipPath>
    <clipPath
       id="clipPath54443"
       clipPathUnits="userSpaceOnUse">
      <path
         inkscape:connector-curvature="0"
         id="path54441"
         d="M 0,0 H 28440 V 117755 H 0 V 0" />
    </clipPath>
    <clipPath
       id="clipPath54477"
       clipPathUnits="userSpaceOnUse">
      <path
         inkscape:connector-curvature="0"
         id="path54475"
         d="M 0,0 H 28440 V 117755 H 0 V 0" />
    </clipPath>
    <clipPath
       id="clipPath54489"
       clipPathUnits="userSpaceOnUse">
      <path
         inkscape:connector-curvature="0"
         id="path54487"
         d="M 0,0 H 28440 V 117755 H 0 V 0" />
    </clipPath>
    <clipPath
       id="clipPath56313"
       clipPathUnits="userSpaceOnUse">
      <path
         inkscape:connector-curvature="0"
         id="path56311"
         d="M 0,0 H 28440 V 117755 H 0 V 0" />
    </clipPath>
    <clipPath
       id="clipPath56321"
       clipPathUnits="userSpaceOnUse">
      <path
         inkscape:connector-curvature="0"
         id="path56319"
         d="M 0,0 H 28440 V 117755 H 0 V 0" />
    </clipPath>
    <clipPath
       id="clipPath56549"
       clipPathUnits="userSpaceOnUse">
      <path
         inkscape:connector-curvature="0"
         id="path56547"
         d="M 0,0 H 28440 V 117755 H 0 V 0" />
    </clipPath>
    <clipPath
       id="clipPath56557"
       clipPathUnits="userSpaceOnUse">
      <path
         inkscape:connector-curvature="0"
         id="path56555"
         d="M 0,0 H 28440 V 117755 H 0 V 0" />
    </clipPath>
    <marker
       inkscape:stockid="Arrow2Mstart"
       orient="auto"
       refY="0"
       refX="0"
       id="marker2778-6"
       style="overflow:visible"
       inkscape:isstock="true">
      <path
         id="path2776-9"
         style="fill:#000000;fill-opacity:1;fill-rule:evenodd;stroke:#000000;stroke-width:0.625;stroke-linejoin:round;stroke-opacity:1"
         d="M 8.7185878,4.0337352 -2.2072895,0.01601326 8.7185884,-4.0017078 c -1.7454984,2.3720609 -1.7354408,5.6174519 -6e-7,8.035443 z"
         transform="scale(0.6)"
         inkscape:connector-curvature="0" />
    </marker>
    <marker
       inkscape:stockid="Arrow2Mend"
       orient="auto"
       refY="0"
       refX="0"
       id="marker2818-4"
       style="overflow:visible"
       inkscape:isstock="true">
      <path
         id="path2816-1"
         style="fill:#000000;fill-opacity:1;fill-rule:evenodd;stroke:#000000;stroke-width:0.625;stroke-linejoin:round;stroke-opacity:1"
         d="M 8.7185878,4.0337352 -2.2072895,0.01601326 8.7185884,-4.0017078 c -1.7454984,2.3720609 -1.7354408,5.6174519 -6e-7,8.035443 z"
         transform="scale(-0.6)"
         inkscape:connector-curvature="0" />
    </marker>
    <marker
       inkscape:stockid="Arrow2Mstart"
       orient="auto"
       refY="0"
       refX="0"
       id="marker2778-6-4"
       style="overflow:visible"
       inkscape:isstock="true">
      <path
         id="path2776-9-7"
         style="fill:#000000;fill-opacity:1;fill-rule:evenodd;stroke:#000000;stroke-width:0.625;stroke-linejoin:round;stroke-opacity:1"
         d="M 8.7185878,4.0337352 -2.2072895,0.01601326 8.7185884,-4.0017078 c -1.7454984,2.3720609 -1.7354408,5.6174519 -6e-7,8.035443 z"
         transform="scale(0.6)"
         inkscape:connector-curvature="0" />
    </marker>
    <marker
       inkscape:stockid="Arrow2Mend"
       orient="auto"
       refY="0"
       refX="0"
       id="marker2818-4-1"
       style="overflow:visible"
       inkscape:isstock="true">
      <path
         id="path2816-1-6"
         style="fill:#000000;fill-opacity:1;fill-rule:evenodd;stroke:#000000;stroke-width:0.625;stroke-linejoin:round;stroke-opacity:1"
         d="M 8.7185878,4.0337352 -2.2072895,0.01601326 8.7185884,-4.0017078 c -1.7454984,2.3720609 -1.7354408,5.6174519 -6e-7,8.035443 z"
         transform="scale(-0.6)"
         inkscape:connector-curvature="0" />
    </marker>
    <marker
       inkscape:stockid="Arrow2Mstart"
       orient="auto"
       refY="0"
       refX="0"
       id="marker2778-4"
       style="overflow:visible"
       inkscape:isstock="true">
      <path
         id="path2776-3"
         style="fill:#000000;fill-opacity:1;fill-rule:evenodd;stroke:#000000;stroke-width:0.625;stroke-linejoin:round;stroke-opacity:1"
         d="M 8.7185878,4.0337352 -2.2072895,0.01601326 8.7185884,-4.0017078 c -1.7454984,2.3720609 -1.7354408,5.6174519 -6e-7,8.035443 z"
         transform="scale(0.6)"
         inkscape:connector-curvature="0" />
    </marker>
    <marker
       inkscape:stockid="Arrow2Mend"
       orient="auto"
       refY="0"
       refX="0"
       id="marker2818-9"
       style="overflow:visible"
       inkscape:isstock="true">
      <path
         id="path2816-3"
         style="fill:#000000;fill-opacity:1;fill-rule:evenodd;stroke:#000000;stroke-width:0.625;stroke-linejoin:round;stroke-opacity:1"
         d="M 8.7185878,4.0337352 -2.2072895,0.01601326 8.7185884,-4.0017078 c -1.7454984,2.3720609 -1.7354408,5.6174519 -6e-7,8.035443 z"
         transform="scale(-0.6)"
         inkscape:connector-curvature="0" />
    </marker>
    <path
       inkscape:connector-curvature="0"
       id="path2484-7"
       d="m 20.471349,75.57071 h 61.815348 l -5.29e-4,13.999813 78.075812,-0.09522 0.0811,33.434127 h 12.98033 v 23.63575 h 11.01922 l 0.0183,63.51294 h -11.00004 l -1e-5,9.99567 11.00005,0.004 -2e-4,19.79208 h 6.02345"
       style="display:inline;fill:none;stroke:#e50000;stroke-width:2;stroke-linecap:butt;stroke-linejoin:miter;stroke-miterlimit:4;stroke-dasharray:none;stroke-opacity:1"
       transform="translate(-7.6953856,183.88373)" />
  </defs>
  <sodipodi:namedview
     fit-margin-bottom="10"
     fit-margin-right="10"
     fit-margin-left="10"
     fit-margin-top="10"
     inkscape:snap-global="true"
     inkscape:guide-bbox="true"
     showguides="false"
     id="base"
     pagecolor="#ffffff"
     bordercolor="#666666"
     borderopacity="1.0"
     inkscape:pageopacity="0.0"
     inkscape:pageshadow="2"
     inkscape:zoom="0.5020458"
     inkscape:cx="424.85909"
     inkscape:cy="475.21805"
     inkscape:document-units="mm"
     inkscape:current-layer="layer3"
     showgrid="false"
     inkscape:window-width="1920"
     inkscape:window-height="1027"
     inkscape:window-x="-8"
     inkscape:window-y="-8"
     inkscape:window-maximized="1"
     inkscape:document-rotation="0">
    <sodipodi:guide
       position="21.847379,102.64415"
       orientation="1,0"
       id="guide33700"
       inkscape:locked="false" />
    <sodipodi:guide
       position="21.847379,300.48901"
       orientation="0,1"
       id="guide2322"
       inkscape:locked="false" />
    <sodipodi:guide
       position="177.72285,149.54669"
       orientation="1,0"
       id="guide2271"
       inkscape:locked="false" />
    <sodipodi:guide
       position="109.02079,30.641195"
       orientation="1,0"
       id="guide8517"
       inkscape:locked="false" />
    <sodipodi:guide
       position="91.431293,30.641195"
       orientation="1,0"
       id="guide9068"
       inkscape:locked="false" />
    <sodipodi:guide
       position="91.431291,8.448566"
       orientation="0,1"
       id="guide9070"
       inkscape:locked="false" />
    <sodipodi:guide
       position="33.182739,36.846906"
       orientation="0,1"
       id="guide9097"
       inkscape:locked="false" />
  </sodipodi:namedview>
  <metadata
     id="metadata5">
    <rdf:RDF>
      <cc:Work
         rdf:about="">
        <dc:format>image/svg+xml</dc:format>
        <dc:type
           rdf:resource="http://purl.org/dc/dcmitype/StillImage" />
        <dc:title />
      </cc:Work>
    </rdf:RDF>
  </metadata>
  <g
     transform="translate(-7.6953856,183.88373)"
     style="display:inline"
     inkscape:label="Rasen"
     id="layer6"
     inkscape:groupmode="layer">
    <path
       transform="scale(0.26458333)"
       sodipodi:nodetypes="cccccccccc"
       inkscape:connector-curvature="0"
       id="rect8482"
       d="M 429.7207,-390.15625 94.568359,-77.585938 V 287.11719 H 294.49219 v 59.8164 H 605 v 169.14258 h 95.79297 v -906.23242 z"
       style="fill:#00ff68;fill-opacity:1;stroke:none;stroke-width:0.37795275;stroke-miterlimit:4;stroke-dasharray:none;stroke-opacity:1" />
  </g>
  <g
     transform="translate(-7.6953856,183.88373)"
     style="display:inline"
     inkscape:label="Haus-Fläche"
     id="layer13"
     inkscape:groupmode="layer">
    <path
       transform="scale(0.26458333)"
       inkscape:connector-curvature="0"
       id="rect19163"
       d="M 77.371094,339.81445 V 661.48633 H 209.61133 V 906.29492 H 606.0918 V 509.89453 H 265.16406 V 339.81445 Z"
       style="display:inline;fill:#cbc500;fill-opacity:1;stroke-width:0.37795275;stroke-miterlimit:10" />
  </g>
  <g
     transform="translate(-7.6953856,183.88373)"
     style="display:inline"
     inkscape:label="Pflaster"
     id="layer2"
     inkscape:groupmode="layer">
    <path
       transform="matrix(0.26458333,0,0,0.26458333,7.6953856,-183.88373)"
       sodipodi:nodetypes="cccccccccccccccccccccccccccccccccccccccccccccccccccccccccccccccccccc"
       inkscape:connector-curvature="0"
       id="rect2277"
       d="M 522.21094,197.45312 400.63672,310.83789 H 668.0027 V 197.45312 Z M 48.287109,980.61523 v 52.91407 H 236.84766 v 171.3594 h 340.16015 0.35157 l -0.35157,396.4004 H 440.04883 v 23.6797 h -28 v 31.6464 h 164.95898 v 81.7129 H 690.7658 l 0.0898,-136.8144 h -22.76505 v -74.8047 h -41.57497 v -37.7949 h 41.57497 v -277.5684 h -0.0684 v 37.5195 h -41.57496 v -37.5195 h -0.22071 v -6.457 h 0.0742 v -45.3555 H 577.00781 V 1033.168 H 281.91992 V 980.61523 H 67.185547 Z M 577.88086,1349.9922 h 45.35352 v 37.7949 h -45.35352 z m -529.593751,5.6953 v 0.1426 h 18.898438 v 245.6836 H 48.287109 v 2.5254 134.289 H 273.64844 v -0.75 h -64.3125 l -28.72656,-28.7265 v -52.9864 h 164.95898 v -30.8964 h -28 v -23.6797 H 180.52734 v -245.6016 z m 528.652341,353.1582 -29.48242,29.4824 h 29.48242 z"
       style="fill:#bfbfc7;fill-opacity:1;stroke-width:0.37795278;stroke-miterlimit:10" />
    <path
       sodipodi:nodetypes="ccccccccc"
       inkscape:connector-curvature="0"
       id="rect2392"
       transform="scale(0.26458333)"
       d="m 374.65234,1013.8516 -28.73242,28.7324 h -43.1875 v 0.75 h 167.13281 l -28.73242,-28.7324 V 911.09375 h -66.48047 z"
       style="fill:#f1ce8a;fill-opacity:1;stroke-width:0.37795275;stroke-miterlimit:10" />
  </g>
  <g
     transform="translate(-7.6953856,183.88373)"
     style="display:inline"
     inkscape:label="Zaun"
     id="layer5"
     inkscape:groupmode="layer" />
  <g
     transform="translate(-7.6953856,183.88373)"
     style="display:inline"
     inkscape:label="Hecke"
     id="layer3"
     inkscape:groupmode="layer">
    <path
       sodipodi:nodetypes="ccccccccccccccc"
       transform="matrix(0.26458333,0,0,0.26458333,7.6953856,-183.88373)"
       d="M 690.76758,8.4296875 47.986328,607.88672 c 0.603852,123.97622 0.300781,248.54133 0.300781,372.72851 H 67.185547 V 622.81836 L 522.22852,197.45312 H 668.08984 V 1601.5137 h 22.67774 z M 48.287109,1355.8301 v 245.6836 h 18.898438 v -245.6836 z"
       style="fill:#4ca344;stroke-width:3.77953;fill-opacity:1"
       id="Hecke" />
  </g>
  <g
     transform="translate(-7.6953856,183.88373)"
     style="display:inline"
     inkscape:label="Bewässerung"
     id="layer9"
     inkscape:groupmode="layer">
    <path
       transform="matrix(0.26458333,0,0,0.26458333,7.6953856,-183.88373)"
       d="M 400.20312 310.4707 L 241.60938 459.86328 L 67.169922 623.29102 L 67.361328 976.3418 A 353.05061 353.05061 0 0 0 131.46289 970.4375 A -148.65289 148.65289 0 0 0 128.91992 972.98047 L 277.57227 972.98047 L 426.22461 972.98047 A -148.65289 148.65289 0 0 0 321.45312 868.20898 A 353.05061 353.05061 0 0 0 391.14062 763.60742 A 353.05061 353.05061 0 0 0 418.50977 588.5918 A 278.72418 278.72418 0 0 0 502.61523 569.69922 A 278.72418 278.72418 0 0 0 678.92578 311.31836 L 400.20312 310.4707 z "
       style="fill:#000080;fill-opacity:0.736334;stroke-width:3.71632"
       id="Rasen1" />
    <path
       transform="matrix(0.26458333,0,0,0.26458333,7.6953856,-183.88373)"
       d="M 670.51953 312.81641 A 375.22295 375.22295 0 0 0 295.29688 688.03906 A 375.22295 375.22295 0 0 0 423.79297 970.73633 L 281.91992 970.73633 L 281.91992 1033.168 L 523.28516 1033.168 A 375.22295 375.22295 0 0 0 600.6875 1056.707 A 94.225829 94.225829 0 0 0 575.57031 1120.7578 A 94.225829 94.225829 0 0 0 669.79688 1214.9824 L 669.79688 1120.7578 L 669.79688 1063.2598 A 375.22295 375.22295 0 0 0 670.51953 1063.2617 L 670.51953 688.03906 L 670.51953 312.81641 z "
       style="fill:#000080;fill-opacity:0.736334;stroke-width:3.75223"
       id="Rasen2" />
  </g>
  <g
     transform="translate(-7.6953856,183.88373)"
     style="display:inline"
     inkscape:label="Beete"
     id="layer4"
     inkscape:groupmode="layer">
    <g
       style="fill:#d8b04a"
       id="Beet2">
      <path
         inkscape:connector-curvature="0"
         d="m 560.73828,300.37891 v 37.79492 h 45.35352 v 45.35351 h 37.79492 V 338.17383 300.37891 H 606.0918 Z"
         transform="scale(0.26458333)"
         id="path1070" />
      <path
         inkscape:connector-curvature="0"
         d="m 655.53125,516.07617 v 37.79492 h 41.57762 v -37.79492 z"
         transform="scale(0.26458333)"
         id="path1068" />
      <path
         inkscape:connector-curvature="0"
         d="m 606.96484,654.99805 v 37.79492 h 45.35352 v -37.79492 z"
         transform="scale(0.26458333)"
         id="path1066" />
      <path
         inkscape:connector-curvature="0"
         d="m 655.59961,793.91992 v 37.79492 h 41.57729 v -37.79492 z"
         transform="scale(0.26458333)"
         id="path1064" />
    </g>
    <g
       style="fill:#d8b04a"
       id="Beet1">
      <path
         inkscape:connector-curvature="0"
         d="m 209.69336,960.87109 v 52.98631 l 28.72656,28.7266 h 107.5 l 28.73242,-28.7324 v -52.98051 z"
         transform="scale(0.26458333)"
         id="path1062" />
      <path
         sodipodi:nodetypes="ccccccc"
         inkscape:connector-curvature="0"
         d="m 441.13281,961.62109 v 52.98051 l 28.73242,28.7324 h 106.67579 l 29.48242,-29.4824 0.0684,-52.23051 z"
         transform="scale(0.26458333)"
         id="rect2263" />
    </g>
  </g>
  <g
     transform="translate(-7.6953856,183.88373)"
     style="display:none"
     inkscape:label="Verrohrung"
     id="layer12"
     inkscape:groupmode="layer">
    <path
       sodipodi:nodetypes="ccccccccc"
       inkscape:connector-curvature="0"
       d="m 33.267527,-18.218057 -6.39,-2.173918 m 6.674448,83.831969 h 50.867077 v 11.55223 M 33.551975,89.618837 V -18.077758 l 85.057955,-79.468162 -5.12397,-4.93765"
       style="fill:none;stroke:#00ff00;stroke-width:1.5;stroke-linecap:butt;stroke-linejoin:miter;stroke-miterlimit:4;stroke-dasharray:none;stroke-opacity:1"
       id="path2898" />
    <path
       sodipodi:nodetypes="cccccccc"
       inkscape:connector-curvature="0"
       d="M 184.47607,66.560958 V -1.4947183 M 115.98811,66.654121 V 81.819282 M 36.890724,89.62143 c -0.131755,-0.52701 0,-23.056701 0,-23.056701 H 184.44931 v 49.407221"
       style="fill:none;stroke:#00ff00;stroke-width:1.5;stroke-linecap:butt;stroke-linejoin:miter;stroke-miterlimit:4;stroke-dasharray:none;stroke-opacity:1"
       id="path2906" />
    <path
       sodipodi:nodetypes="ccc"
       inkscape:connector-curvature="0"
       id="path2909"
       d="M 31.09361,89.621433 V -21.050737 L 133.81863,-117.49684"
       style="fill:none;stroke:#0000ff;stroke-width:1.5;stroke-linecap:butt;stroke-linejoin:miter;stroke-miterlimit:4;stroke-dasharray:none;stroke-opacity:1" />
    <circle
       r="2.5032992"
       cy="-116.83488"
       cx="132.93837"
       id="path2913"
       style="fill:#0000ff;fill-opacity:1;stroke:none;stroke-width:1;stroke-miterlimit:4;stroke-dasharray:none;stroke-opacity:1" />
    <path
       inkscape:connector-curvature="0"
       id="path2915"
       d="m 21.986502,64.837441 v -87.200704 l 124.838618,-115.522297 36.8926,0.37265 c 0,0 5.58979,-7.0804 -0.7453,-7.0804 -6.3351,0 -29.06691,1.11796 -29.06691,1.11796 l 7.45305,-6.70775 26.45834,0.37266 -0.37265,-8.57101 h -17.51467 l 15.6514,-13.78815"
       style="fill:none;stroke:#ffff00;stroke-width:0.69999999;stroke-linecap:butt;stroke-linejoin:miter;stroke-miterlimit:4;stroke-dasharray:none;stroke-opacity:1" />
    <path
       inkscape:connector-curvature="0"
       id="path2917"
       d="m 21.61385,178.12383 v 59.25176"
       style="fill:none;stroke:#ffff00;stroke-width:0.69999999;stroke-linecap:butt;stroke-linejoin:miter;stroke-miterlimit:4;stroke-dasharray:none;stroke-opacity:1" />
    <path
       sodipodi:nodetypes="cccccccccc"
       inkscape:connector-curvature="0"
       d="M 28.205081,89.62143 V 70.253801 H 188.93321 M 22.529891,66.433154 c 0,0 -0.263506,5.533647 0,6.324161 z m 5.806751,6.587194 -9.891256,-0.263033 V 178.29092 h 4.479313"
       style="fill:none;stroke:#ffff00;stroke-width:1.5;stroke-linecap:butt;stroke-linejoin:miter;stroke-miterlimit:4;stroke-dasharray:none;stroke-opacity:1"
       id="path2919" />
    <path
       sodipodi:nodetypes="cc"
       inkscape:connector-curvature="0"
       id="path2921"
       d="M 189.19671,238.23835 V -173.88373"
       style="fill:none;stroke:#ffff00;stroke-width:0.5;stroke-linecap:butt;stroke-linejoin:miter;stroke-miterlimit:4;stroke-dasharray:none;stroke-opacity:1" />
    <path
       sodipodi:nodetypes="cccccccccccc"
       inkscape:connector-curvature="0"
       d="m 172.33238,214.78638 h 4.21608 m -3.95258,-73.51794 h 3.29382 m -3.82083,37.15423 h -7.11464 M 161.26516,74.601638 V 86.195865 M 39.314847,89.43251 V 74.153754 H 172.16549 V 216.32071"
       style="fill:none;stroke:#ff0000;stroke-width:1.5;stroke-linecap:butt;stroke-linejoin:miter;stroke-miterlimit:4;stroke-dasharray:none;stroke-opacity:1"
       id="path2936" />
    <path
       sodipodi:nodetypes="cccccccc"
       inkscape:connector-curvature="0"
       d="m 149.14392,259.31876 v 7.37814 M 42.290971,89.884937 V 77.7637 H 167.85279 V 259.31876 H 68.774849 v 5.2701"
       style="fill:none;stroke:#ff0000;stroke-width:1.5;stroke-linecap:butt;stroke-linejoin:miter;stroke-miterlimit:4;stroke-dasharray:none;stroke-opacity:1"
       id="path2942" />
    <text
       x="0"
       y="0"
       id="text4545"><textPath
         style="font-style:normal;font-weight:normal;font-size:3.96875px;text-align:center;text-anchor:start;fill:#000000;fill-opacity:1;stroke:none"
         xlink:href="#path2915"
         startOffset="50%"
         dy="-1.5875"
         id="textPath4543">41,64 m</textPath></text>
    <text
       x="0"
       y="0"
       id="text4549"><textPath
         style="font-style:normal;font-weight:normal;font-size:3.96875px;text-align:center;text-anchor:start;fill:#000000;fill-opacity:1;stroke:none"
         xlink:href="#path2917"
         startOffset="50%"
         dy="-1.5875"
         id="textPath4547">5,93 m</textPath></text>
    <text
       x="0"
       y="0"
       id="text4553"><textPath
         style="font-style:normal;font-weight:normal;font-size:3.96875px;text-align:center;text-anchor:start;fill:#000000;fill-opacity:1;stroke:none"
         xlink:href="#path2909"
         startOffset="50%"
         dy="-1.5875"
         id="textPath4551">25,16 m</textPath></text>
    <text
       x="0"
       y="0"
       id="text4557"><textPath
         style="font-style:normal;font-weight:normal;font-size:3.96875px;text-align:center;text-anchor:start;fill:#000000;fill-opacity:1;stroke:none"
         xlink:href="#path2919"
         startOffset="50%"
         dy="-1.5875"
         id="textPath4555">16,80 m</textPath></text>
    <text
       x="0"
       y="0"
       id="text4561"><textPath
         style="font-style:normal;font-weight:normal;font-size:3.96875px;text-align:center;text-anchor:start;fill:#000000;fill-opacity:1;stroke:none"
         xlink:href="#path2921"
         startOffset="50%"
         dy="-1.5875"
         id="textPath4559">41,21 m</textPath></text>
    <text
       x="0"
       y="0"
       id="text4569"><textPath
         style="font-style:normal;font-weight:normal;font-size:3.96875px;text-align:center;text-anchor:start;fill:#000000;fill-opacity:1;stroke:none"
         xlink:href="#path2936"
         startOffset="50%"
         dy="-1.5875"
         id="textPath4567">31,26 m</textPath></text>
    <text
       x="0"
       y="0"
       id="text4573"><textPath
         style="font-style:normal;font-weight:normal;font-size:3.96875px;text-align:center;text-anchor:start;fill:#000000;fill-opacity:1;stroke:none"
         xlink:href="#path2906"
         startOffset="50%"
         dy="-1.5875"
         id="textPath4571">30,32 m</textPath></text>
    <text
       x="0"
       y="0"
       id="text4577"><textPath
         style="font-style:normal;font-weight:normal;font-size:3.96875px;text-align:center;text-anchor:start;fill:#000000;fill-opacity:1;stroke:none"
         xlink:href="#path2942"
         startOffset="50%"
         dy="-1.5875"
         id="textPath4575">42,56 m</textPath></text>
    <text
       x="0"
       y="0"
       id="text4581"><textPath
         style="font-style:normal;font-weight:normal;font-size:3.96875px;text-align:center;text-anchor:start;fill:#000000;fill-opacity:1;stroke:none"
         xlink:href="#path2898"
         startOffset="50%"
         dy="-1.5875"
         id="textPath4579">30,04 m</textPath></text>
  </g>
  <g
     transform="translate(-7.6953856,183.88373)"
     style="display:none"
     inkscape:label="Bewässerung Hunter"
     id="layer11"
     inkscape:groupmode="layer">
    <text
       id="text2723"
       y="-134.27083"
       x="19.579166"
       style="font-style:normal;font-weight:normal;font-size:10.5833px;line-height:1.25;font-family:sans-serif;letter-spacing:0px;word-spacing:0px;display:inline;fill:#000000;fill-opacity:1;stroke:none;stroke-width:0.264583"
       xml:space="preserve"><tspan
         style="stroke-width:0.264583"
         y="-134.27083"
         x="19.579166"
         id="tspan2721"
         sodipodi:role="line">MP3000H</tspan></text>
    <text
       id="text2727"
       y="-32.67083"
       x="-49.741665"
       style="font-style:normal;font-weight:normal;font-size:10.5833px;line-height:1.25;font-family:sans-serif;letter-spacing:0px;word-spacing:0px;display:inline;fill:#000000;fill-opacity:1;stroke:none;stroke-width:0.264583"
       xml:space="preserve"><tspan
         style="stroke-width:0.264583"
         y="-32.67083"
         x="-49.741665"
         id="tspan2725"
         sodipodi:role="line">MP3500H</tspan></text>
    <path
       inkscape:connector-curvature="0"
       id="path2735"
       d="m 4.2333333,-30.554165 21.2379797,9.606607"
       style="display:inline;fill:none;stroke:#000000;stroke-width:1;stroke-linecap:butt;stroke-linejoin:miter;stroke-miterlimit:4;stroke-dasharray:none;stroke-opacity:1" />
    <path
       inkscape:connector-curvature="0"
       id="path2737"
       d="m 74.083332,-129.50833 39.613598,26.27949"
       style="display:inline;fill:none;stroke:#000000;stroke-width:1;stroke-linecap:butt;stroke-linejoin:miter;stroke-miterlimit:4;stroke-dasharray:none;stroke-opacity:1" />
    <path
       inkscape:connector-curvature="0"
       id="path2772"
       d="M 185.47655,-1.9862006 220.19727,-19.371354"
       style="display:inline;fill:none;stroke:#000000;stroke-width:1;stroke-linecap:butt;stroke-linejoin:miter;stroke-miterlimit:4;stroke-dasharray:none;stroke-opacity:1" />
    <text
       id="text2793"
       y="78.87748"
       x="218.49518"
       style="font-style:normal;font-weight:normal;font-size:10.5833px;line-height:1.25;font-family:sans-serif;letter-spacing:0px;word-spacing:0px;display:inline;fill:#000000;fill-opacity:1;stroke:none;stroke-width:0.264583"
       xml:space="preserve"><tspan
         style="stroke-width:0.264583"
         y="78.87748"
         x="218.49518"
         id="tspan2791"
         sodipodi:role="line">MP-SS</tspan></text>
    <text
       id="text2797"
       y="75.668465"
       x="-57.267738"
       style="font-style:normal;font-weight:normal;font-size:10.5833px;line-height:1.25;font-family:sans-serif;letter-spacing:0px;word-spacing:0px;display:inline;fill:#000000;fill-opacity:1;stroke:none;stroke-width:0.264583"
       xml:space="preserve"><tspan
         style="stroke-width:0.264583"
         y="75.668465"
         x="-57.267738"
         id="tspan2795"
         sodipodi:role="line">MP800SR</tspan></text>
    <path
       inkscape:connector-curvature="0"
       id="path2817"
       d="M -0.37265258,71.91784 82.28645,75.570579"
       style="display:inline;fill:none;stroke:#000000;stroke-width:1;stroke-linecap:butt;stroke-linejoin:miter;stroke-miterlimit:4;stroke-dasharray:none;stroke-opacity:1" />
    <path
       inkscape:connector-curvature="0"
       id="path2819"
       d="m 118.32485,82.289186 97.44099,-6.64482"
       style="display:inline;fill:none;stroke:#000000;stroke-width:1;stroke-linecap:butt;stroke-linejoin:miter;stroke-miterlimit:4;stroke-dasharray:none;stroke-opacity:1" />
    <text
       id="text2727-4"
       y="-15.965538"
       x="223.56981"
       style="font-style:normal;font-weight:normal;font-size:10.5833px;line-height:1.25;font-family:sans-serif;letter-spacing:0px;word-spacing:0px;display:inline;fill:#000000;fill-opacity:1;stroke:none;stroke-width:0.264583"
       xml:space="preserve"><tspan
         style="stroke-width:0.264583"
         y="-15.965538"
         x="223.56981"
         id="tspan2725-2"
         sodipodi:role="line">MP3500H</tspan></text>
    <text
       id="text2797-3"
       y="126.41206"
       x="217.94292"
       style="font-style:normal;font-weight:normal;font-size:10.5833px;line-height:1.25;font-family:sans-serif;letter-spacing:0px;word-spacing:0px;display:inline;fill:#000000;fill-opacity:1;stroke:none;stroke-width:0.264583"
       xml:space="preserve"><tspan
         style="stroke-width:0.264583"
         y="126.41206"
         x="217.94292"
         id="tspan2795-8"
         sodipodi:role="line">MP800SR</tspan></text>
    <path
       sodipodi:nodetypes="cc"
       inkscape:connector-curvature="0"
       id="path2817-1"
       d="m 185.28363,113.33688 29.43232,9.73154"
       style="display:inline;fill:none;stroke:#000000;stroke-width:1;stroke-linecap:butt;stroke-linejoin:miter;stroke-miterlimit:4;stroke-dasharray:none;stroke-opacity:1" />
  </g>
</svg>
