<?xml version="1.0" encoding="UTF-8" standalone="no"?>
<!-- Created with Inkscape (http://www.inkscape.org/) -->

<svg
   xmlns:dc="http://purl.org/dc/elements/1.1/"
   xmlns:cc="http://creativecommons.org/ns#"
   xmlns:rdf="http://www.w3.org/1999/02/22-rdf-syntax-ns#"
   xmlns:svg="http://www.w3.org/2000/svg"
   xmlns="http://www.w3.org/2000/svg"
   xmlns:sodipodi="http://sodipodi.sourceforge.net/DTD/sodipodi-0.dtd"
   xmlns:inkscape="http://www.inkscape.org/namespaces/inkscape"
   width="32"
   height="32"
   viewBox="0 0 8.4666664 8.4666669"
   version="1.1"
   id="svg8"
   inkscape:version="0.92.5 (2060ec1f9f, 2020-04-08)"
   sodipodi:docname="MyCastle.svg">
  <defs
     id="defs2" />
  <sodipodi:namedview
     id="base"
     pagecolor="#ffffff"
     bordercolor="#666666"
     borderopacity="1.0"
     inkscape:pageopacity="0.0"
     inkscape:pageshadow="2"
     inkscape:zoom="31.678384"
     inkscape:cx="18.356247"
     inkscape:cy="12.372244"
     inkscape:document-units="mm"
     inkscape:current-layer="layer2"
     showgrid="false"
     units="px"
     inkscape:window-width="1920"
     inkscape:window-height="1027"
     inkscape:window-x="-8"
     inkscape:window-y="-8"
     inkscape:window-maximized="1" />
  <metadata
     id="metadata5">
    <rdf:RDF>
      <cc:Work
         rdf:about="">
        <dc:format>image/svg+xml</dc:format>
        <dc:type
           rdf:resource="http://purl.org/dc/dcmitype/StillImage" />
        <dc:title></dc:title>
      </cc:Work>
    </rdf:RDF>
  </metadata>
  <g
     inkscape:groupmode="layer"
     id="layer2"
     inkscape:label="Ebene 2"
     transform="translate(0,-288.5333)">
    <path
       style="fill:#7f7673;fill-opacity:0.54901961;stroke:#000000;stroke-width:0.15310463px;stroke-linecap:butt;stroke-linejoin:miter;stroke-opacity:1"
       d="m 4.0110728,288.98348 -1.2150874,1.6418 h 2.4562193 z m -0.9322918,1.98189 v 2.03711 H 2.4278746 v -1.27699 H 1.9765294 v 0.39963 H 1.6293615 v -0.39963 H 1.1867426 v 0.39963 H 0.82218941 v -0.39963 H 0.40561504 v 4.87339 H 3.0874401 v -1.01207 c 0.013616,-1.13597 1.9555036,-1.1187 1.9354671,0 v 1.01207 h 2.6384627 v -4.87339 H 7.2447956 v 0.39963 H 6.8281537 v -0.39963 H 6.4376233 v 0.39963 H 6.0644109 v -0.39963 H 5.6217924 v 1.27699 H 4.9751821 v -2.03711 z m -1.6254199,1.66074 c 0.188716,-2.5e-4 0.3774412,0.0998 0.3774412,0.30112 v 1.17627 H 1.0759204 v -1.17627 c 0,-0.20013 0.1887253,-0.30083 0.3774407,-0.30112 z m 5.2161771,0 c 0.1887159,-2.5e-4 0.3774412,0.0998 0.3774412,0.30112 v 1.17627 H 6.2920973 v -1.17627 c 0,-0.20013 0.1887252,-0.30083 0.3774409,-0.30112 z"
       id="path827"
       inkscape:connector-curvature="0"
       sodipodi:nodetypes="ccccccccccccccccccccccccccccccccccccccsccsccsccsc" />
  </g>
</svg>
